<svg width="97" height="86" viewBox="0 0 97 86" fill="none" xmlns="http://www.w3.org/2000/svg">
<mask id="mask0_524_255" style="mask-type:luminance" maskUnits="userSpaceOnUse" x="0" y="0" width="97" height="86">
<path d="M0 0H97V86H0V0Z" fill="white"/>
</mask>
<g mask="url(#mask0_524_255)">
<path d="M76.4845 7.17242C71.0161 4.09577 64.1291 2.24892 55.8138 1.87698C55.4062 1.86598 55.0002 1.928 54.6205 2.05934C54.2405 2.19069 53.8944 2.38864 53.6027 2.64138C53.311 2.89409 53.0801 3.19638 52.9232 3.53014C52.7665 3.86391 52.6872 4.22229 52.6904 4.58382V36.9435L56.0975 38.6205H92.5962C93.0145 38.6186 93.428 38.541 93.8111 38.3926C94.1945 38.2443 94.5398 38.0282 94.8257 37.7575C95.1117 37.4868 95.3323 37.1673 95.4744 36.8186C95.6165 36.4697 95.6767 36.099 95.6517 35.7288C94.8199 22.4568 88.4494 12.2959 76.4845 7.17242Z" fill="#00034A" stroke="#00034A" stroke-linejoin="round"/>
<path d="M81.7564 45.335C75.0028 45.2211 59.1748 44.9867 46.6424 45.2619C46.7879 36.7329 46.7079 26.9525 46.6521 19.8596C46.6294 17.5241 46.6158 15.1884 46.6109 12.8528C46.6024 12.4701 46.5066 12.093 46.3291 11.7441C46.1514 11.3952 45.8958 11.082 45.5779 10.8232C44.3169 9.7955 41.4408 8.30985 39.8015 8.4066C14.1644 9.52245 1.34341 24.05 1.34341 45.3952C1.34341 68.8818 20.8937 84.1447 46.5648 84.1253C73.1574 84.1253 87.072 70.7136 88.2845 50.0478C88.3064 49.6664 88.2428 49.285 88.0978 48.9255C87.3024 46.9583 83.9414 45.4146 81.7564 45.335Z" fill="#00034A" stroke="#00034A" stroke-linejoin="round"/>
<path d="M81.7564 45.3328C82.1871 45.3485 82.6103 45.4398 83.001 45.6013C83.3919 45.763 83.7425 45.9915 84.033 46.274C84.3233 46.5565 84.5479 46.8874 84.6931 47.2471C84.8386 47.607 84.9019 47.9889 84.8798 48.3707C83.6673 69.0365 69.7527 82.4482 43.1577 82.4482C15.2823 82.4676 1.34341 67.6498 1.34341 45.393C1.34341 24.0478 14.1644 9.52023 39.8039 8.40438C40.2344 8.37961 40.6663 8.43246 41.0732 8.55972C41.4801 8.68697 41.8536 8.886 42.1712 9.14482C42.4892 9.40361 42.7443 9.7168 42.9218 10.0655C43.0993 10.4142 43.1951 10.7911 43.2038 11.1736C43.2038 17.4967 43.4608 33.0778 43.2038 45.3521C56.1169 44.9393 74.3651 45.2102 81.7564 45.3328Z" fill="#28988D" stroke="#00034A" stroke-miterlimit="10"/>
<path d="M92.2446 34.0518C91.0806 15.4112 78.9822 2.90897 55.8138 1.87698C55.4062 1.86598 55.0002 1.928 54.6205 2.05934C54.2405 2.19069 53.8944 2.38864 53.6027 2.64138C53.311 2.89409 53.0801 3.19638 52.9232 3.53014C52.7665 3.86391 52.6872 4.22229 52.6904 4.58382V36.9435H89.1915C89.6096 36.9411 90.0228 36.8635 90.4057 36.715C90.7888 36.5664 91.1337 36.3503 91.4193 36.0796C91.705 35.8092 91.9257 35.4897 92.0675 35.141C92.2094 34.7924 92.2696 34.4218 92.2446 34.0518Z" fill="#616161" stroke="#00034A" stroke-linejoin="round"/>
</g>
</svg>
