<svg width="86" height="86" viewBox="0 0 86 86" fill="none" xmlns="http://www.w3.org/2000/svg">
<g clip-path="url(#clip0_524_316)">
<mask id="mask0_524_316" style="mask-type:luminance" maskUnits="userSpaceOnUse" x="0" y="0" width="86" height="86">
<path d="M0 0H86V86H0V0Z" fill="white"/>
</mask>
<g mask="url(#mask0_524_316)">
<path d="M41.8579 1.07495C19.3344 1.07495 1.07446 19.3349 1.07446 41.8583C1.07446 64.586 21.1555 84.667 43.8854 84.667C66.4088 84.667 84.6666 66.4092 84.6666 43.8836C84.6666 21.1581 64.5834 1.07495 41.8579 1.07495Z" fill="#00034A" stroke="#00034A" stroke-miterlimit="10"/>
<path d="M41.8579 82.6416C64.3813 82.6416 82.6413 64.3817 82.6413 41.8561C82.6413 19.3371 64.3813 1.07495 41.8558 1.07495C19.3366 1.07495 1.07446 19.3349 1.07446 41.8583C1.07446 64.3817 19.3344 82.6416 41.8579 82.6416Z" fill="#28988D" stroke="#00034A" stroke-miterlimit="10"/>
<path d="M52.9627 52.963C53.6937 52.2535 56.4564 50.1809 60.492 38.3215C62.0333 33.9674 63.058 29.4472 63.545 24.8539C63.5815 24.2291 63.4854 23.6037 63.2629 23.0187C63.0404 22.4337 62.6966 21.9026 62.2539 21.46C61.8114 21.0174 61.2802 20.6736 60.6951 20.4511C60.1103 20.2286 59.4849 20.1325 58.8601 20.1691C54.2671 20.6575 49.7471 21.6823 45.3925 23.2221C41.6687 24.4992 33.7438 27.7199 30.751 30.732C27.7625 33.742 24.4773 41.6691 23.2432 45.3714C21.7017 49.7262 20.677 54.2472 20.1901 58.8411C20.1536 59.4659 20.2497 60.0914 20.4722 60.6764C20.6947 61.2614 21.0385 61.7924 21.481 62.2351C21.9235 62.6776 22.4548 63.0214 23.0398 63.2439C23.6248 63.4664 24.2503 63.5625 24.8751 63.526C29.4683 63.039 33.9885 62.0143 38.3427 60.473C50.2236 56.4976 52.3155 53.6317 52.9627 52.963Z" fill="#616161" stroke="#00034A" stroke-miterlimit="10"/>
<path d="M35.939 34.7268C35.939 34.7268 44.6379 34.7268 46.8137 36.8166C48.9895 38.9086 48.9056 47.6935 48.9056 47.6935" stroke="#00034A" stroke-miterlimit="10" stroke-linecap="round"/>
<path d="M6.90955 41.8583H12.7231" stroke="#00034A" stroke-miterlimit="10" stroke-linecap="round"/>
<path d="M70.9926 41.8583H76.8062" stroke="#00034A" stroke-miterlimit="10" stroke-linecap="round"/>
<path d="M41.8579 6.91003V12.7236" stroke="#00034A" stroke-miterlimit="10" stroke-linecap="round"/>
<path d="M41.8579 70.9929V76.8065" stroke="#00034A" stroke-miterlimit="10" stroke-linecap="round"/>
<path d="M17.1349 17.1355L21.2565 21.257" stroke="#00034A" stroke-miterlimit="10" stroke-linecap="round"/>
<path d="M62.457 62.4574L66.5786 66.5789" stroke="#00034A" stroke-miterlimit="10" stroke-linecap="round"/>
</g>
</g>
<defs>
<clipPath id="clip0_524_316">
<rect width="86" height="86" fill="white"/>
</clipPath>
</defs>
</svg>
