<svg width="913" height="234" viewBox="0 0 913 234" fill="none" xmlns="http://www.w3.org/2000/svg">
<path d="M297.5 229.091C297.5 144.935 396.235 91.5989 459.5 3.5M459.5 3.5C519.836 91.5989 614 145.575 614 229.091M459.5 3.5C283.569 53.2353 8.99997 66.2176 8.99997 130.855M459.5 3.5C633.478 53.2353 905 61.4178 905 130.855" stroke="#333333" stroke-opacity="0.23" stroke-width="5"/>
<path d="M16.5 125.095L8.99997 130.855C4.52262 127.875 2.99997 123.495 2.99997 123.495" stroke="#333333" stroke-opacity="0.23" stroke-width="5"/>
<path d="M302.708 222.326L297.552 229.058C292.5 225.572 291 222.326 291 222.326" stroke="#333333" stroke-opacity="0.23" stroke-width="5"/>
<path d="M610.131 223.135L613.365 229.568C617.49 225.936 618.924 222.681 618.924 222.681" stroke="#333333" stroke-opacity="0.23" stroke-width="5"/>
<path d="M897 125.095L904.5 130.855C908.977 127.875 910.5 123.495 910.5 123.495" stroke="#333333" stroke-opacity="0.23" stroke-width="5"/>
</svg>
