<svg width="1211" height="213" viewBox="0 0 1211 213" fill="none" xmlns="http://www.w3.org/2000/svg">
<path d="M133.215 9.78368C133.239 9.7012 133.25 9.65996 133.256 9.64087C136.885 -3.08797 154.925 -3.08797 158.555 9.64087C158.56 9.65996 158.572 9.7012 158.595 9.78368C158.656 10.001 158.687 10.1097 158.716 10.2117C175.583 69.7717 222.133 116.322 281.693 133.189C281.795 133.218 281.904 133.248 282.121 133.31C282.203 133.333 282.245 133.344 282.264 133.35C294.993 136.98 294.993 155.019 282.264 158.649C282.245 158.654 282.203 158.666 282.121 158.689C281.904 158.751 281.795 158.781 281.693 158.81C222.133 175.677 175.583 222.227 158.716 281.787C158.687 281.889 158.656 281.998 158.595 282.215C158.572 282.298 158.56 282.339 158.555 282.358C154.925 295.087 136.885 295.087 133.256 282.358C133.25 282.339 133.239 282.298 133.215 282.215C133.154 281.998 133.123 281.889 133.095 281.787C116.228 222.227 69.6774 175.677 10.1175 158.81C10.0155 158.781 9.90678 158.751 9.68944 158.689C9.60696 158.666 9.56572 158.654 9.54663 158.649C-3.18221 155.019 -3.18221 136.98 9.54663 133.35C9.56572 133.344 9.60696 133.333 9.68944 133.31C9.90678 133.248 10.0155 133.218 10.1175 133.189C69.6774 116.322 116.228 69.7717 133.095 10.2117C133.123 10.1097 133.154 10.001 133.215 9.78368Z" fill="url(#paint0_linear_584_9)"/>
<path d="M323.915 229V59.8H437.915V84.04H353.675V130.84H432.395V155.32H353.675V204.52H437.915V229H323.915Z" fill="url(#paint1_linear_584_9)"/>
<path d="M519.227 231.4C506.747 231.4 495.787 228.84 486.347 223.72C477.067 218.6 469.867 211.32 464.747 201.88C459.627 192.28 457.067 180.92 457.067 167.8C457.067 154.68 459.627 143.48 464.747 134.2C470.027 124.92 477.307 117.8 486.587 112.84C495.867 107.88 506.747 105.4 519.227 105.4C527.227 105.4 534.987 106.68 542.507 109.24C550.187 111.64 556.427 115.16 561.227 119.8L552.107 140.68C547.787 136.68 542.907 133.72 537.467 131.8C532.187 129.72 526.987 128.68 521.867 128.68C511.147 128.68 502.747 132.04 496.667 138.76C490.747 145.48 487.787 155.24 487.787 168.04C487.787 180.84 490.747 190.68 496.667 197.56C502.747 204.44 511.147 207.88 521.867 207.88C526.827 207.88 531.947 206.92 537.227 205C542.667 203.08 547.627 200.12 552.107 196.12L561.227 216.76C556.267 221.4 549.947 225 542.267 227.56C534.747 230.12 527.067 231.4 519.227 231.4Z" fill="url(#paint2_linear_584_9)"/>
<path d="M636.86 231.4C624.38 231.4 613.58 228.84 604.46 223.72C595.34 218.6 588.22 211.32 583.1 201.88C578.14 192.44 575.66 181.24 575.66 168.28C575.66 155.32 578.14 144.2 583.1 134.92C588.22 125.48 595.34 118.2 604.46 113.08C613.58 107.96 624.38 105.4 636.86 105.4C649.34 105.4 660.14 107.96 669.26 113.08C678.54 118.2 685.66 125.48 690.62 134.92C695.74 144.2 698.3 155.32 698.3 168.28C698.3 181.24 695.74 192.44 690.62 201.88C685.66 211.32 678.54 218.6 669.26 223.72C660.14 228.84 649.34 231.4 636.86 231.4ZM636.86 208.36C646.3 208.36 653.82 205.08 659.42 198.52C665.02 191.8 667.82 181.72 667.82 168.28C667.82 154.84 665.02 144.84 659.42 138.28C653.82 131.72 646.3 128.44 636.86 128.44C627.42 128.44 619.9 131.72 614.3 138.28C608.7 144.84 605.9 154.84 605.9 168.28C605.9 181.72 608.7 191.8 614.3 198.52C619.9 205.08 627.42 208.36 636.86 208.36Z" fill="url(#paint3_linear_584_9)"/>
<path d="M726.812 229V59.8H753.932L816.092 199.72H808.652L870.812 59.8H897.692V229H869.612V103.48H878.252L821.372 229H802.892L746.012 103.48H754.892V229H726.812Z" fill="url(#paint4_linear_584_9)"/>
<path d="M933 229V107.8H963V229H933ZM931.32 85V55.72H964.68V85H931.32Z" fill="url(#paint5_linear_584_9)"/>
<path d="M995.578 229V138.04C995.578 133.08 995.418 128.04 995.098 122.92C994.778 117.8 994.298 112.76 993.658 107.8H1022.7L1025.1 131.8H1022.22C1026.06 123.32 1031.74 116.84 1039.26 112.36C1046.78 107.72 1055.5 105.4 1065.42 105.4C1079.66 105.4 1090.38 109.4 1097.58 117.4C1104.78 125.4 1108.38 137.88 1108.38 154.84V229H1078.38V156.28C1078.38 146.52 1076.46 139.56 1072.62 135.4C1068.94 131.08 1063.34 128.92 1055.82 128.92C1046.54 128.92 1039.18 131.8 1033.74 137.56C1028.3 143.32 1025.58 151 1025.58 160.6V229H995.578Z" fill="url(#paint6_linear_584_9)"/>
<path d="M1192.03 231.4C1177.63 231.4 1166.75 227.64 1159.39 220.12C1152.03 212.6 1148.35 201.32 1148.35 186.28V130.36H1125.07V107.8H1148.35V76.84L1178.35 69.16V107.8H1210.75V130.36H1178.35V184.36C1178.35 192.68 1179.95 198.52 1183.15 201.88C1186.35 205.24 1190.75 206.92 1196.35 206.92C1199.39 206.92 1201.95 206.68 1204.03 206.2C1206.27 205.72 1208.43 205.08 1210.51 204.28V228.04C1207.79 229.16 1204.75 229.96 1201.39 230.44C1198.19 231.08 1195.07 231.4 1192.03 231.4Z" fill="url(#paint7_linear_584_9)"/>
<defs>
<linearGradient id="paint0_linear_584_9" x1="605.374" y1="0.0942383" x2="605.374" y2="291.905" gradientUnits="userSpaceOnUse">
<stop stop-color="white"/>
<stop offset="1" stop-color="#5E5E5E"/>
</linearGradient>
<linearGradient id="paint1_linear_584_9" x1="760" y1="48" x2="760" y2="228" gradientUnits="userSpaceOnUse">
<stop stop-color="white"/>
<stop offset="0.755983" stop-color="#888888"/>
</linearGradient>
<linearGradient id="paint2_linear_584_9" x1="760" y1="48" x2="760" y2="228" gradientUnits="userSpaceOnUse">
<stop stop-color="white"/>
<stop offset="0.755983" stop-color="#888888"/>
</linearGradient>
<linearGradient id="paint3_linear_584_9" x1="760" y1="48" x2="760" y2="228" gradientUnits="userSpaceOnUse">
<stop stop-color="white"/>
<stop offset="0.755983" stop-color="#888888"/>
</linearGradient>
<linearGradient id="paint4_linear_584_9" x1="760" y1="48" x2="760" y2="228" gradientUnits="userSpaceOnUse">
<stop stop-color="white"/>
<stop offset="0.755983" stop-color="#888888"/>
</linearGradient>
<linearGradient id="paint5_linear_584_9" x1="760" y1="48" x2="760" y2="228" gradientUnits="userSpaceOnUse">
<stop stop-color="white"/>
<stop offset="0.755983" stop-color="#888888"/>
</linearGradient>
<linearGradient id="paint6_linear_584_9" x1="760" y1="48" x2="760" y2="228" gradientUnits="userSpaceOnUse">
<stop stop-color="white"/>
<stop offset="0.755983" stop-color="#888888"/>
</linearGradient>
<linearGradient id="paint7_linear_584_9" x1="760" y1="48" x2="760" y2="228" gradientUnits="userSpaceOnUse">
<stop stop-color="white"/>
<stop offset="0.755983" stop-color="#888888"/>
</linearGradient>
</defs>
</svg>
