<svg width="86" height="86" viewBox="0 0 86 86" fill="none" xmlns="http://www.w3.org/2000/svg">
<g clip-path="url(#clip0_517_72)">
<path d="M43 84.2048L72.7631 72.7596L84.2083 42.9965L72.7631 13.2369L43 1.78821L13.2368 13.2369L1.79163 42.9965L13.2368 72.7596L43 84.2048Z" fill="#78CBC7"/>
<path d="M64.5 30.4548H53.75L46.5834 42.1006L53.75 55.5381H69.875V73.8704L72.7632 72.7596L84.2084 42.9964L80.7612 34.0382H68.0834L64.5 30.4548Z" fill="#269C3F"/>
<path d="M73.1825 14.3303L72.7632 13.2373L58.7775 7.85876L55.5417 14.3303H51.9584V23.2886H59.125L62.7084 17.9136V14.3303H73.1825Z" fill="#269C3F"/>
<path d="M1.79163 42.9995L13.2368 72.7412L33.9234 80.6962L34.0416 80.6245L41.2083 68.0829L32.25 55.5412H17.9166L12.5416 48.3745V39.4162L19.7083 34.0413V41.2079L23.2916 42.9995L30.4583 39.4162V28.6663L21.5 25.083L27.2333 7.84717L13.2296 13.2222L1.79163 42.9995Z" fill="#269C3F"/>
<path d="M69.875 73.8704V55.5381H53.75L46.5834 42.1006L53.75 30.4548H64.5L68.0834 34.0382H80.7612" stroke="#1D6309" stroke-width="5.25512" stroke-linecap="round" stroke-linejoin="round"/>
<path d="M43 84.2048L72.7631 72.7596L84.2083 42.9965L72.7631 13.2369L43 1.78821L13.2368 13.2369L1.79163 42.9965L13.2368 72.7596L43 84.2048Z" stroke="#1D6309" stroke-width="5.25512" stroke-linecap="round" stroke-linejoin="round"/>
<path d="M73.1825 14.3303H62.7084V17.9136L59.125 23.2886H51.9584V14.3303H55.5417L58.7775 7.85876" stroke="#1D6309" stroke-width="5.25512" stroke-linecap="round" stroke-linejoin="round"/>
<path d="M27.244 7.84717L21.5 25.0794L30.4583 28.6628V39.4126L23.2916 42.9959L19.7083 41.2043V34.0378L12.5416 39.4126V48.3709L17.9166 55.5376H32.25L41.2083 68.0793L34.0416 80.6209" stroke="#1D6309" stroke-width="5.25512" stroke-linecap="round" stroke-linejoin="round"/>
</g>
<defs>
<clipPath id="clip0_517_72">
<rect width="86" height="86" fill="white"/>
</clipPath>
</defs>
</svg>
