<svg width="68" height="52" viewBox="0 0 68 52" fill="none" xmlns="http://www.w3.org/2000/svg">
    <path d="M39.1407 51.8155H63.9918C66.4453 51.8155 68 50.0908 68 47.3943V16.3973C68 13.7008 66.4453 11.9761 63.9918 11.9761H39.1407C36.6629 11.9761 35.1324 13.7008 35.1324 16.3973V47.3943C35.1324 50.0908 36.6629 51.8155 39.1407 51.8155ZM40.4282 47.9045C39.4809 47.9045 39.0437 47.4428 39.0437 46.4955V17.2961C39.0437 16.3487 39.4809 15.8871 40.4282 15.8871H62.7043C63.6516 15.8871 64.089 16.3487 64.089 17.2961V46.4955C64.089 47.4428 63.6516 47.9045 62.7043 47.9045H40.4282ZM54.858 25.3369H58.769C59.2549 25.3369 59.5948 24.9968 59.5948 24.5109V20.7213C59.5948 20.2355 59.2549 19.8954 58.769 19.8954H54.858C54.3478 19.8954 54.0561 20.2355 54.0561 20.7213V24.5109C54.0561 24.9968 54.3478 25.3369 54.858 25.3369ZM54.858 34.6165H58.769C59.2549 34.6165 59.5948 34.2765 59.5948 33.7906V30.0011C59.5948 29.5152 59.2549 29.175 58.769 29.175H54.858C54.3478 29.175 54.0561 29.5152 54.0561 30.0011V33.7906C54.0561 34.2765 54.3478 34.6165 54.858 34.6165ZM54.858 43.8962H58.769C59.2549 43.8962 59.5948 43.556 59.5948 43.0701V39.2806C59.5948 38.7947 59.2549 38.4547 58.769 38.4547H54.858C54.3478 38.4547 54.0561 38.7947 54.0561 39.2806V43.0701C54.0561 43.556 54.3478 43.8962 54.858 43.8962ZM44.3637 25.3369H48.2747C48.7849 25.3369 49.0763 24.9968 49.0763 24.5109V20.7213C49.0763 20.2355 48.7849 19.8954 48.2747 19.8954H44.3637C43.8778 19.8954 43.5376 20.2355 43.5376 20.7213V24.5109C43.5376 24.9968 43.8778 25.3369 44.3637 25.3369ZM44.3637 34.6165H48.2747C48.7849 34.6165 49.0763 34.2765 49.0763 33.7906V30.0011C49.0763 29.5152 48.7849 29.175 48.2747 29.175H44.3637C43.8778 29.175 43.5376 29.5152 43.5376 30.0011V33.7906C43.5376 34.2765 43.8778 34.6165 44.3637 34.6165ZM44.3637 43.8962H48.2747C48.7849 43.8962 49.0763 43.556 49.0763 43.0701V39.2806C49.0763 38.7947 48.7849 38.4547 48.2747 38.4547H44.3637C43.8778 38.4547 43.5376 38.7947 43.5376 39.2806V43.0701C43.5376 43.556 43.8778 43.8962 44.3637 43.8962Z" fill="#29A396"/>
    <mask id="mask0_530_109" style="mask-type:alpha" maskUnits="userSpaceOnUse" x="0" y="0" width="39" height="52">
        <path d="M0 47.3942C0 50.0907 1.55471 51.8154 4.03252 51.8154H34.6652C37.1185 51.8154 38.6732 50.0907 38.6732 47.3942V4.44537C38.6732 1.74892 37.1185 0.0241699 34.6652 0.0241699H4.03252C1.55471 0.0241699 0 1.74892 0 4.44537V47.3942Z" fill="#29A396"/>
    </mask>
    <g mask="url(#mask0_530_109)">
        <path d="M0 47.3942C0 50.0907 1.55471 51.8154 4.03252 51.8154H34.6652C37.1185 51.8154 38.6732 50.0907 38.6732 47.3942V4.44537C38.6732 1.74892 37.1185 0.0241699 34.6652 0.0241699H4.03252C1.55471 0.0241699 0 1.74892 0 4.44537V47.3942ZM3.91106 46.4954V5.34417C3.91106 4.3725 4.34833 3.93524 5.32002 3.93524H33.3777C34.325 3.93524 34.7622 4.3725 34.7622 5.34417V46.4954C34.7622 47.4427 34.325 47.9044 33.3777 47.9044H5.32002C4.34833 47.9044 3.91106 47.4427 3.91106 46.4954ZM10.883 49.7505H14.0653V41.6368C14.0653 41.1267 14.3325 40.8595 14.8426 40.8595H23.8308C24.3652 40.8595 24.6081 41.1267 24.6081 41.6368V49.7505H27.7903V40.738C27.7903 38.6489 26.8672 37.6773 24.8753 37.6773H13.798C11.8061 37.6773 10.883 38.6489 10.883 40.738V49.7505ZM11.2716 14.551H16.0086C16.5917 14.551 17.0046 14.1623 17.0046 13.555V8.96374C17.0046 8.38073 16.5917 7.96775 16.0086 7.96775H11.2716C10.6886 7.96775 10.3242 8.38073 10.3242 8.96374V13.555C10.3242 14.1623 10.6886 14.551 11.2716 14.551ZM22.6647 14.551H27.3774C27.9605 14.551 28.3734 14.1623 28.3734 13.555V8.96374C28.3734 8.38073 27.9605 7.96775 27.3774 7.96775H22.6647C22.0574 7.96775 21.6929 8.38073 21.6929 8.96374V13.555C21.6929 14.1623 22.0574 14.551 22.6647 14.551ZM11.2716 24.1708H16.0086C16.5917 24.1708 17.0046 23.7821 17.0046 23.1748V18.5835C17.0046 18.0005 16.5917 17.5875 16.0086 17.5875H11.2716C10.6886 17.5875 10.3242 18.0005 10.3242 18.5835V23.1748C10.3242 23.7821 10.6886 24.1708 11.2716 24.1708ZM22.6647 24.1708H27.3774C27.9605 24.1708 28.3734 23.7821 28.3734 23.1748V18.5835C28.3734 18.0005 27.9605 17.5875 27.3774 17.5875H22.6647C22.0574 17.5875 21.6929 18.0005 21.6929 18.5835V23.1748C21.6929 23.7821 22.0574 24.1708 22.6647 24.1708ZM11.2716 33.7905H16.0086C16.5917 33.7905 17.0046 33.3776 17.0046 32.7945V28.2033C17.0046 27.5959 16.5917 27.2073 16.0086 27.2073H11.2716C10.6886 27.2073 10.3242 27.5959 10.3242 28.2033V32.7945C10.3242 33.3776 10.6886 33.7905 11.2716 33.7905ZM22.6647 33.7905H27.3774C27.9605 33.7905 28.3734 33.3776 28.3734 32.7945V28.2033C28.3734 27.5959 27.9605 27.2073 27.3774 27.2073H22.6647C22.0574 27.2073 21.6929 27.5959 21.6929 28.2033V32.7945C21.6929 33.3776 22.0574 33.7905 22.6647 33.7905Z" fill="#29A396"/>
    </g>
</svg>
