<svg width="208" height="59" viewBox="0 0 208 59" fill="none" xmlns="http://www.w3.org/2000/svg">
<path d="M57.1014 43V18.043H73.9164V21.6184H61.491V28.5214H73.1022V32.1322H61.491V39.3892H73.9164V43H57.1014ZM85.9098 43.354C84.069 43.354 82.4524 42.9764 81.06 42.2212C79.6912 41.466 78.6292 40.3922 77.874 38.9998C77.1188 37.5838 76.7412 35.9082 76.7412 33.973C76.7412 32.0378 77.1188 30.3858 77.874 29.017C78.6528 27.6482 79.7266 26.598 81.0954 25.8664C82.4642 25.1348 84.069 24.769 85.9098 24.769C87.0898 24.769 88.2344 24.9578 89.3436 25.3354C90.4764 25.6894 91.3968 26.2086 92.1048 26.893L90.7596 29.9728C90.1224 29.3828 89.4026 28.9462 88.6002 28.663C87.8214 28.3562 87.0544 28.2028 86.2992 28.2028C84.718 28.2028 83.479 28.6984 82.5822 29.6896C81.709 30.6808 81.2724 32.1204 81.2724 34.0084C81.2724 35.8964 81.709 37.3478 82.5822 38.3626C83.479 39.3774 84.718 39.8848 86.2992 39.8848C87.0308 39.8848 87.786 39.7432 88.5648 39.46C89.3672 39.1768 90.0988 38.7402 90.7596 38.1502L92.1048 41.1946C91.3732 41.879 90.441 42.41 89.3082 42.7876C88.199 43.1652 87.0662 43.354 85.9098 43.354ZM103.261 43.354C101.42 43.354 99.827 42.9764 98.4818 42.2212C97.1366 41.466 96.0864 40.3922 95.3312 38.9998C94.5996 37.6074 94.2338 35.9554 94.2338 34.0438C94.2338 32.1322 94.5996 30.492 95.3312 29.1232C96.0864 27.7308 97.1366 26.657 98.4818 25.9018C99.827 25.1466 101.42 24.769 103.261 24.769C105.102 24.769 106.695 25.1466 108.04 25.9018C109.409 26.657 110.459 27.7308 111.19 29.1232C111.946 30.492 112.323 32.1322 112.323 34.0438C112.323 35.9554 111.946 37.6074 111.19 38.9998C110.459 40.3922 109.409 41.466 108.04 42.2212C106.695 42.9764 105.102 43.354 103.261 43.354ZM103.261 39.9556C104.653 39.9556 105.762 39.4718 106.588 38.5042C107.414 37.513 107.827 36.0262 107.827 34.0438C107.827 32.0614 107.414 30.5864 106.588 29.6188C105.762 28.6512 104.653 28.1674 103.261 28.1674C101.868 28.1674 100.759 28.6512 99.9332 29.6188C99.1072 30.5864 98.6942 32.0614 98.6942 34.0438C98.6942 36.0262 99.1072 37.513 99.9332 38.5042C100.759 39.4718 101.868 39.9556 103.261 39.9556ZM116.529 43V18.043H120.529L129.697 38.6812H128.6L137.769 18.043H141.733V43H137.592V24.4858H138.866L130.476 43H127.75L119.361 24.4858H120.67V43H116.529ZM146.941 43V25.123H151.366V43H146.941ZM146.694 21.76V17.4412H151.614V21.76H146.694ZM156.172 43V29.5834C156.172 28.8518 156.148 28.1084 156.101 27.3532C156.054 26.598 155.983 25.8546 155.888 25.123H160.172L160.526 28.663H160.101C160.667 27.4122 161.505 26.4564 162.614 25.7956C163.724 25.1112 165.01 24.769 166.473 24.769C168.573 24.769 170.155 25.359 171.217 26.539C172.279 27.719 172.81 29.5598 172.81 32.0614V43H168.385V32.2738C168.385 30.8342 168.101 29.8076 167.535 29.194C166.992 28.5568 166.166 28.2382 165.057 28.2382C163.688 28.2382 162.603 28.663 161.8 29.5126C160.998 30.3622 160.597 31.495 160.597 32.911V43H156.172ZM185.148 43.354C183.024 43.354 181.419 42.7994 180.334 41.6902C179.248 40.581 178.705 38.9172 178.705 36.6988V28.4506H175.271V25.123H178.705V20.5564L183.13 19.4236V25.123H187.909V28.4506H183.13V36.4156C183.13 37.6428 183.366 38.5042 183.838 38.9998C184.31 39.4954 184.959 39.7432 185.785 39.7432C186.234 39.7432 186.611 39.7078 186.918 39.637C187.248 39.5662 187.567 39.4718 187.874 39.3538V42.8584C187.473 43.0236 187.024 43.1416 186.529 43.2124C186.057 43.3068 185.596 43.354 185.148 43.354Z" fill="#1C1916"/>
<path d="M19.6493 9.4082C19.6527 9.39603 19.6544 9.38995 19.6552 9.38713C20.1906 7.50963 22.8514 7.50963 23.3868 9.38713C23.3876 9.38995 23.3894 9.39603 23.3928 9.4082C23.4018 9.44025 23.4063 9.45628 23.4106 9.47133C25.8984 18.2564 32.7646 25.1226 41.5497 27.6104C41.5648 27.6147 41.5808 27.6192 41.6129 27.6283C41.625 27.6317 41.6311 27.6334 41.6339 27.6342C43.5114 28.1696 43.5114 30.8304 41.6339 31.3658C41.6311 31.3666 41.625 31.3684 41.6128 31.3718C41.5808 31.3808 41.5648 31.3853 41.5497 31.3896C32.7646 33.8774 25.8984 40.7436 23.4106 49.5287C23.4063 49.5438 23.4018 49.5598 23.3928 49.5919C23.3894 49.604 23.3876 49.6101 23.3868 49.6129C22.8514 51.4904 20.1906 51.4904 19.6552 49.6129C19.6544 49.6101 19.6527 49.604 19.6493 49.5919C19.6402 49.5598 19.6357 49.5438 19.6314 49.5287C17.1436 40.7436 10.2774 33.8774 1.49233 31.3896C1.47728 31.3853 1.46125 31.3808 1.42919 31.3718C1.41703 31.3684 1.41094 31.3666 1.40813 31.3658C-0.469376 30.8304 -0.469376 28.1696 1.40813 27.6342C1.41094 27.6334 1.41703 27.6317 1.42919 27.6283C1.46125 27.6192 1.47728 27.6147 1.49233 27.6104C10.2774 25.1226 17.1436 18.2564 19.6314 9.47133C19.6357 9.45628 19.6402 9.44025 19.6493 9.4082Z" fill="#1C1916"/>
</svg>
