<svg width="184" height="52" viewBox="0 0 184 52" fill="none" xmlns="http://www.w3.org/2000/svg">
<path d="M50.3267 38V16.004H65.1467V19.1552H54.1955V25.2392H64.4291V28.4216H54.1955V34.8176H65.1467V38H50.3267ZM75.7171 38.312C74.0947 38.312 72.6699 37.9792 71.4427 37.3136C70.2363 36.648 69.3003 35.7016 68.6347 34.4744C67.9691 33.2264 67.6363 31.7496 67.6363 30.044C67.6363 28.3384 67.9691 26.8824 68.6347 25.676C69.3211 24.4696 70.2675 23.544 71.4739 22.8992C72.6803 22.2544 74.0947 21.932 75.7171 21.932C76.7571 21.932 77.7659 22.0984 78.7435 22.4312C79.7419 22.7432 80.5531 23.2008 81.1771 23.804L79.9915 26.5184C79.4299 25.9984 78.7955 25.6136 78.0883 25.364C77.4019 25.0936 76.7259 24.9584 76.0603 24.9584C74.6667 24.9584 73.5747 25.3952 72.7843 26.2688C72.0147 27.1424 71.6299 28.4112 71.6299 30.0752C71.6299 31.7392 72.0147 33.0184 72.7843 33.9128C73.5747 34.8072 74.6667 35.2544 76.0603 35.2544C76.7051 35.2544 77.3707 35.1296 78.0571 34.88C78.7643 34.6304 79.4091 34.2456 79.9915 33.7256L81.1771 36.4088C80.5323 37.012 79.7107 37.48 78.7123 37.8128C77.7347 38.1456 76.7363 38.312 75.7171 38.312ZM91.0095 38.312C89.3871 38.312 87.9831 37.9792 86.7975 37.3136C85.6119 36.648 84.6863 35.7016 84.0207 34.4744C83.3759 33.2472 83.0535 31.7912 83.0535 30.1064C83.0535 28.4216 83.3759 26.976 84.0207 25.7696C84.6863 24.5424 85.6119 23.596 86.7975 22.9304C87.9831 22.2648 89.3871 21.932 91.0095 21.932C92.6319 21.932 94.0359 22.2648 95.2215 22.9304C96.4279 23.596 97.3535 24.5424 97.9983 25.7696C98.6639 26.976 98.9967 28.4216 98.9967 30.1064C98.9967 31.7912 98.6639 33.2472 97.9983 34.4744C97.3535 35.7016 96.4279 36.648 95.2215 37.3136C94.0359 37.9792 92.6319 38.312 91.0095 38.312ZM91.0095 35.3168C92.2367 35.3168 93.2143 34.8904 93.9423 34.0376C94.6703 33.164 95.0343 31.8536 95.0343 30.1064C95.0343 28.3592 94.6703 27.0592 93.9423 26.2064C93.2143 25.3536 92.2367 24.9272 91.0095 24.9272C89.7823 24.9272 88.8047 25.3536 88.0767 26.2064C87.3487 27.0592 86.9847 28.3592 86.9847 30.1064C86.9847 31.8536 87.3487 33.164 88.0767 34.0376C88.8047 34.8904 89.7823 35.3168 91.0095 35.3168ZM102.703 38V16.004H106.229L114.31 34.1936H113.342L121.423 16.004H124.918V38H121.267V21.6824H122.39L114.996 38H112.594L105.199 21.6824H106.354V38H102.703ZM129.508 38V22.244H133.408V38H129.508ZM129.289 19.28V15.4736H133.626V19.28H129.289ZM137.643 38V26.1752C137.643 25.5304 137.622 24.8752 137.58 24.2096C137.539 23.544 137.476 22.8888 137.393 22.244H141.168L141.48 25.364H141.106C141.605 24.2616 142.344 23.4192 143.321 22.8368C144.299 22.2336 145.432 21.932 146.722 21.932C148.573 21.932 149.967 22.452 150.903 23.492C151.839 24.532 152.307 26.1544 152.307 28.3592V38H148.407V28.5464C148.407 27.2776 148.157 26.3728 147.658 25.832C147.18 25.2704 146.452 24.9896 145.474 24.9896C144.268 24.9896 143.311 25.364 142.604 26.1128C141.896 26.8616 141.543 27.86 141.543 29.108V38H137.643ZM163.181 38.312C161.309 38.312 159.895 37.8232 158.938 36.8456C157.981 35.868 157.503 34.4016 157.503 32.4464V25.1768H154.476V22.244H157.503V18.2192L161.403 17.2208V22.244H165.615V25.1768H161.403V32.1968C161.403 33.2784 161.611 34.0376 162.027 34.4744C162.443 34.9112 163.015 35.1296 163.743 35.1296C164.138 35.1296 164.471 35.0984 164.741 35.036C165.032 34.9736 165.313 34.8904 165.584 34.7864V37.8752C165.23 38.0208 164.835 38.1248 164.398 38.1872C163.982 38.2704 163.576 38.312 163.181 38.312Z" fill="white"/>
<path d="M17.318 8.29195C17.321 8.28122 17.3225 8.27586 17.3232 8.27338C17.7951 6.61863 20.1402 6.61863 20.6121 8.27338C20.6128 8.27586 20.6143 8.28122 20.6174 8.29195C20.6253 8.3202 20.6293 8.33433 20.6331 8.34759C22.8257 16.0904 28.8773 22.1419 36.6201 24.3346C36.6334 24.3384 36.6475 24.3423 36.6757 24.3503C36.6865 24.3533 36.6918 24.3548 36.6943 24.3556C38.349 24.8274 38.349 27.1726 36.6943 27.6444C36.6918 27.6451 36.6865 27.6467 36.6757 27.6497C36.6475 27.6576 36.6334 27.6616 36.6201 27.6654C28.8773 29.8581 22.8257 35.9096 20.6331 43.6524C20.6293 43.6657 20.6253 43.6798 20.6174 43.7081C20.6143 43.7188 20.6128 43.7241 20.6121 43.7266C20.1402 45.3814 17.7951 45.3814 17.3232 43.7266C17.3225 43.7241 17.321 43.7188 17.318 43.708C17.31 43.6798 17.306 43.6657 17.3023 43.6524C15.1096 35.9096 9.05806 29.8581 1.31527 27.6654C1.30201 27.6616 1.28788 27.6576 1.25963 27.6497C1.2489 27.6467 1.24354 27.6451 1.24106 27.6444C-0.413687 27.1726 -0.413687 24.8274 1.24106 24.3556C1.24354 24.3548 1.24891 24.3533 1.25963 24.3503C1.28788 24.3423 1.30201 24.3384 1.31527 24.3346C9.05806 22.1419 15.1096 16.0904 17.3023 8.34759C17.306 8.33433 17.31 8.3202 17.318 8.29195Z" fill="white"/>
</svg>
