<svg width="53" height="45" viewBox="0 0 53 45" fill="none" xmlns="http://www.w3.org/2000/svg">
    <path fill-rule="evenodd" clip-rule="evenodd" d="M3.23403 29.734C5.30474 27.6633 8.11323 26.5 11.0417 26.5H28.7083C31.6368 26.5 34.4453 27.6633 36.516 29.734C38.5867 31.8047 39.75 34.6132 39.75 37.5417V41.9583C39.75 43.178 38.7613 44.1667 37.5417 44.1667C36.322 44.1667 35.3333 43.178 35.3333 41.9583V37.5417C35.3333 35.7846 34.6353 34.0995 33.3929 32.8571C32.1505 31.6147 30.4654 30.9167 28.7083 30.9167H11.0417C9.28461 30.9167 7.59951 31.6147 6.35708 32.8571C5.11466 34.0995 4.41667 35.7846 4.41667 37.5417V41.9583C4.41667 43.178 3.42796 44.1667 2.20833 44.1667C0.988705 44.1667 0 43.178 0 41.9583V37.5417C0 34.6132 1.16332 31.8047 3.23403 29.734Z" fill="#29A396"/>
    <path fill-rule="evenodd" clip-rule="evenodd" d="M19.875 4.41667C16.2161 4.41667 13.25 7.38278 13.25 11.0417C13.25 14.7006 16.2161 17.6667 19.875 17.6667C23.5339 17.6667 26.5 14.7006 26.5 11.0417C26.5 7.38278 23.5339 4.41667 19.875 4.41667ZM8.83334 11.0417C8.83334 4.94352 13.7769 0 19.875 0C25.9732 0 30.9167 4.94352 30.9167 11.0417C30.9167 17.1398 25.9732 22.0833 19.875 22.0833C13.7769 22.0833 8.83334 17.1398 8.83334 11.0417Z" fill="#29A396"/>
    <path fill-rule="evenodd" clip-rule="evenodd" d="M42.0285 28.4437C42.3334 27.2627 43.5378 26.5526 44.7187 26.8575C47.0875 27.4691 49.1861 28.8502 50.685 30.7837C52.1839 32.7173 52.9982 35.0939 53 37.5403L53 41.9587C53 43.1783 52.0113 44.167 50.7917 44.167C49.572 44.167 48.5833 43.1783 48.5833 41.9587L48.5833 37.5436C48.5833 37.5434 48.5833 37.5439 48.5833 37.5436C48.5821 36.076 48.0935 34.6496 47.1943 33.4897C46.295 32.3295 45.0359 31.5009 43.6146 31.1339C42.4337 30.829 41.7235 29.6246 42.0285 28.4437Z" fill="#29A396"/>
    <path fill-rule="evenodd" clip-rule="evenodd" d="M33.194 1.94798C33.4965 0.766462 34.6996 0.0538915 35.8811 0.356407C38.2562 0.96453 40.3614 2.34584 41.8647 4.28258C43.368 6.21931 44.184 8.6013 44.184 11.053C44.184 13.5047 43.368 15.8867 41.8647 17.8235C40.3614 19.7602 38.2562 21.1415 35.8811 21.7496C34.6996 22.0522 33.4965 21.3396 33.194 20.1581C32.8915 18.9766 33.6041 17.7735 34.7856 17.471C36.2107 17.1061 37.4737 16.2773 38.3757 15.1153C39.2777 13.9532 39.7673 12.5241 39.7673 11.053C39.7673 9.58199 39.2777 8.1528 38.3757 6.99076C37.4737 5.82871 36.2107 4.99993 34.7856 4.63505C33.6041 4.33254 32.8915 3.12949 33.194 1.94798Z" fill="#29A396"/>
</svg>
