<svg width="86" height="86" viewBox="0 0 86 86" fill="none" xmlns="http://www.w3.org/2000/svg">
<path fill-rule="evenodd" clip-rule="evenodd" d="M11.5646 31.1711C11.5646 31.4943 11.693 31.8042 11.9215 32.0327C12.15 32.2612 12.4599 32.3896 12.783 32.3896C13.1062 32.3896 13.4161 32.2612 13.6446 32.0327C13.8731 31.8042 14.0015 31.4943 14.0015 31.1711C15.0036 25.4394 14.9429 19.5722 13.8223 13.8625C31.7402 6.69531 65.5331 10.2789 71.948 15.0809C72.0502 15.4446 72.1222 15.8161 72.163 16.1918C73.2022 31.637 71.9839 33.4646 73.883 33.4646C74.1683 33.4646 74.4417 33.3514 74.6431 33.1497C74.8448 32.9481 74.958 32.6747 74.958 32.3896C75.2447 15.3317 75.7464 14.2208 74.7789 13.1457C69.0452 7.08951 52.1308 5.7994 43.745 5.9786C27.2965 5.87107 12.2455 10.6372 11.708 12.644C11.0441 15.1212 10.7186 17.6768 10.7404 20.2412C10.6889 23.9018 10.9647 27.5597 11.5646 31.1711Z" fill="#020202"/>
<path fill-rule="evenodd" clip-rule="evenodd" d="M69.0784 59.7681C69.2812 59.528 69.3837 59.2187 69.364 58.9048C69.3447 58.5913 69.2045 58.2971 68.9731 58.0843C68.7416 57.8714 68.437 57.7564 68.1227 57.7628C67.8085 57.7696 67.5089 57.8972 67.2867 58.1197C62.3776 63.1722 48.5459 73.0264 43.6367 73.5997C40.3992 72.1994 37.3333 70.4321 34.4992 68.3322C19.4492 57.9406 19.8433 56.0414 18.5533 57.5822C18.3564 57.7829 18.246 58.0531 18.246 58.3347C18.246 58.616 18.3564 58.8862 18.5533 59.0872C22.8533 63.2081 38.2976 78.6164 44.1384 77.8281C48.2252 76.585 52.0508 74.6056 55.4259 71.9872C60.4053 68.4197 64.983 64.3228 69.0784 59.7681Z" fill="#020202"/>
<path fill-rule="evenodd" clip-rule="evenodd" d="M6.33312 56.0408C8.41156 59.3375 12.9627 56.0408 14.8262 55.4675C21.9933 53.4604 30.7373 49.6979 38.1553 50.3788C42.3482 50.7729 41.7387 52.2421 42.4199 53.9621C43.3458 55.4922 44.6939 56.7224 46.3024 57.5042C47.911 58.2865 49.7109 58.5868 51.4861 58.37C55.3564 58.37 63.1688 55.8616 70.4792 55.2883C72.45 55.2883 74.3854 54.6071 76.3204 54.3204C79.904 53.7829 79.4382 54.6071 81.4449 54.3204C84.7419 54.3204 83.9532 49.9846 83.9532 48.3718C83.9532 42.0647 85.9244 34.2526 76.4637 34.0376C70.9117 34.4102 65.3919 35.1645 59.9434 36.2952C54.0306 37.8002 53.2064 38.1944 52.3102 37.5494C51.4144 36.9044 50.4469 33.9659 47.5086 32.425C40.2344 29.4654 32.1305 29.2616 24.7168 31.8516C19.5367 33.2405 14.5433 35.2499 9.845 37.836C5.11468 40.6672 2.67786 41.6706 3.28706 43.1397C3.5856 47.5784 4.61477 51.9372 6.33312 56.0408ZM46.0032 35.471C48.5836 36.7969 48.5477 41.9214 54.2098 41.4556C56.5031 41.4556 58.6176 40.4164 60.6959 40.0581C83.0574 36.8327 79.8324 36.4744 79.7965 48.4076C79.7965 48.6226 79.6174 49.3393 79.5457 49.9846C76.3723 49.9982 73.2104 50.3709 70.1208 51.0954C57.7214 52.1346 51.5577 56.3275 46.9349 53.5679C45.1432 52.4929 45.5374 51.4179 44.7849 49.9846C39.732 40.7747 9.845 54.8583 8.7341 54.6071C7.06717 50.9045 6.06054 46.9384 5.75972 42.8889C6.11809 42.6739 29.9847 27.3004 46.0032 35.471Z" fill="#28988D"/>
<path fill-rule="evenodd" clip-rule="evenodd" d="M23.3537 68.5829C21.4545 70.3388 15.8645 76.0363 12.7829 76.2154C12.761 76.0248 12.761 75.8327 12.7829 75.6421C16.6887 67.9738 16.0437 69.7654 16.3662 68.8338C16.542 68.4328 16.5994 67.9899 16.5315 67.5574C16.4636 67.1249 16.2734 66.721 15.9832 66.3932C15.693 66.0653 15.3151 65.8274 14.8941 65.7073C14.473 65.5873 14.0264 65.5905 13.607 65.7163C11.0892 66.936 8.34119 67.6079 5.54454 67.6871C8.8745 65.5597 11.5723 62.5773 13.3562 59.0513C13.4988 58.804 13.5373 58.5105 13.4634 58.235C13.3895 57.9594 13.2091 57.7247 12.962 57.5821C12.715 57.4395 12.4214 57.4011 12.1458 57.475C11.8703 57.5488 11.6355 57.729 11.4929 57.9763C10.336 59.836 8.86963 61.4843 7.15704 62.8496C5.09061 64.2632 2.93626 65.5439 0.707058 66.6838C-1.62211 68.5471 1.85372 73.0263 10.4895 71.1629C9.05621 74.3521 7.15704 78.7238 10.7404 79.6196C15.0404 80.6588 18.7312 76.6096 21.992 73.6354C23.497 72.2738 26.5787 69.5504 25.2887 68.2963C24.9731 68.1515 24.6222 68.1013 24.2786 68.1522C23.9351 68.2031 23.6138 68.3529 23.3537 68.5829Z" fill="#28988D"/>
<path fill-rule="evenodd" clip-rule="evenodd" d="M85.2783 66.9703C84.9558 66.7194 83.7016 66.0386 84.3466 66.4686C80.2211 64.9095 76.7213 62.0393 74.385 58.2986C74.3144 58.1764 74.2205 58.0693 74.1083 57.9829C73.9962 57.8969 73.8683 57.8339 73.7321 57.7973C73.5956 57.7608 73.4533 57.7514 73.3132 57.7697C73.1731 57.7883 73.038 57.8339 72.9158 57.9044C72.7936 57.975 72.6861 58.0693 72.6001 58.1811C72.5141 58.2932 72.451 58.4212 72.4145 58.5573C72.3779 58.6939 72.3686 58.8361 72.3869 58.9762C72.4052 59.1163 72.451 59.2514 72.5216 59.3736C74.2639 62.8738 76.9119 65.843 80.19 67.9736C77.4476 67.8916 74.7519 67.2451 72.2708 66.0744C71.724 65.9107 71.1352 65.9598 70.6232 66.2124C70.1115 66.465 69.7141 66.9026 69.5116 67.4361C69.01 69.0128 70.0133 70.1594 70.73 71.2703L73.1666 75.9644C73.74 77.2544 71.9483 76.5019 70.8733 75.9644C66.5375 73.6711 65.14 70.5178 63.7066 72.1661C63.4873 72.399 63.3651 72.7065 63.3651 73.0261C63.3651 73.3457 63.4873 73.6536 63.7066 73.8861C65.6983 75.9207 67.9235 77.7128 70.3358 79.2253C72.665 80.3719 75.8183 80.5511 76.75 78.1144C76.9241 75.8268 76.3995 73.54 75.245 71.5569C84.0241 73.4919 87.6791 68.9411 85.2783 66.9703Z" fill="#28988D"/>
</svg>
