<svg width="73" height="71" viewBox="0 0 73 71" fill="none" xmlns="http://www.w3.org/2000/svg">
<path d="M0 67.98C0 69.4725 1.2212 70.7277 2.71377 70.7277H70.2188C71.7113 70.7277 72.9664 69.4725 72.9664 67.98C72.9664 66.4875 71.7113 65.2663 70.2188 65.2663H2.71377C1.2212 65.2663 0 66.4875 0 67.98ZM5.93637 29.1391C5.93637 30.53 6.71658 31.3101 8.10739 31.3101H16.7915C18.1823 31.3101 18.9964 30.53 18.9964 29.1391V28.325C18.9964 27.002 18.1823 26.1879 16.7915 26.1879H8.10739C6.71658 26.1879 5.93637 27.002 5.93637 28.325V29.1391ZM9.90528 58.1424H15.0275V29.4784H9.90528V58.1424ZM5.93637 60.11C5.93637 61.5009 6.71658 62.281 8.10739 62.281H16.7915C18.1823 62.281 18.9964 61.5009 18.9964 60.11V59.296C18.9964 57.9728 18.1823 57.1588 16.7915 57.1588H8.10739C6.71658 57.1588 5.93637 57.9728 5.93637 59.296V60.11ZM22.0494 29.1391C22.0494 30.53 22.8635 31.3101 24.2204 31.3101H32.9384C34.2954 31.3101 35.1094 30.53 35.1094 29.1391V28.325C35.1094 27.002 34.2954 26.1879 32.9384 26.1879H24.2204C22.8635 26.1879 22.0494 27.002 22.0494 28.325V29.1391ZM26.0522 58.1424H31.1744V29.4784H26.0522V58.1424ZM22.0494 60.11C22.0494 61.5009 22.8635 62.281 24.2204 62.281H32.9384C34.2954 62.281 35.1094 61.5009 35.1094 60.11V59.296C35.1094 57.9728 34.2954 57.1588 32.9384 57.1588H24.2204C22.8635 57.1588 22.0494 57.9728 22.0494 59.296V60.11ZM38.1963 29.1391C38.1963 30.53 39.0106 31.3101 40.3673 31.3101H49.0852C50.4423 31.3101 51.2563 30.53 51.2563 29.1391V28.325C51.2563 27.002 50.4423 26.1879 49.0852 26.1879H40.3673C39.0106 26.1879 38.1963 27.002 38.1963 28.325V29.1391ZM42.1991 58.1424H47.3215V29.4784H42.1991V58.1424ZM38.1963 60.11C38.1963 61.5009 39.0106 62.281 40.3673 62.281H49.0852C50.4423 62.281 51.2563 61.5009 51.2563 60.11V59.296C51.2563 57.9728 50.4423 57.1588 49.0852 57.1588H40.3673C39.0106 57.1588 38.1963 57.9728 38.1963 59.296V60.11ZM54.3432 29.1391C54.3432 30.53 55.1236 31.3101 56.5142 31.3101H65.1982C66.5891 31.3101 67.3693 30.53 67.3693 29.1391V28.325C67.3693 27.002 66.5891 26.1879 65.1982 26.1879H56.5142C55.1236 26.1879 54.3432 27.002 54.3432 28.325V29.1391ZM58.3121 58.1424H63.4345V29.4784H58.3121V58.1424ZM54.3432 60.11C54.3432 61.5009 55.1236 62.281 56.5142 62.281H65.1982C66.5891 62.281 67.3693 61.5009 67.3693 60.11V59.296C67.3693 57.9728 66.5891 57.1588 65.1982 57.1588H56.5142C55.1236 57.1588 54.3432 57.9728 54.3432 59.296V60.11ZM4.47774 23.2367H68.4548C70.3207 23.2367 71.4062 21.8798 71.4062 20.489C71.4062 19.4713 70.8634 18.5893 69.6083 17.877L40.6388 1.18727C39.2818 0.407066 37.857 0 36.4664 0C35.0755 0 33.6508 0.407066 32.2937 1.18727L3.32438 17.877C2.06925 18.5893 1.5265 19.4713 1.5265 20.489C1.5265 21.8798 2.57808 23.2367 4.47774 23.2367ZM14.6544 17.7752L35.1433 6.2756C35.5503 6.03815 36.0253 5.90244 36.4664 5.90244C36.9073 5.90244 37.3823 6.03815 37.7893 6.2756L58.2782 17.7752H14.6544Z" fill="#29A396"/>
</svg>
