<svg width="70" height="67" viewBox="0 0 70 67" fill="none" xmlns="http://www.w3.org/2000/svg">
    <path d="M66.4149 22.4409L47.299 19.654L38.7551 2.33063C37.2243 -0.757219 32.7888 -0.796471 31.2449 2.33063L22.701 19.654L3.5851 22.4409C0.157071 22.9381 -1.21676 27.1642 1.26922 29.5848L15.0991 43.0614L11.8281 62.0988C11.2393 65.5399 14.8636 68.1174 17.8991 66.5081L35 57.5193L52.1009 66.5081C55.1364 68.1043 58.7607 65.5399 58.1719 62.0988L54.9009 43.0614L68.7308 29.5848C71.2168 27.1642 69.8429 22.9381 66.4149 22.4409ZM48.1626 40.8633L51.2635 58.9717L35 50.4277L18.7365 58.9717L21.8374 40.8633L8.67481 28.0409L26.8617 25.3979L35 8.91193L43.1383 25.3979L61.3252 28.0409L48.1626 40.8633Z" fill="#29A396"/>
</svg>
